<?xml version="1.0" encoding="utf-8"?>
<!-- Generator: Adobe Illustrator 24.0.3, SVG Export Plug-In . SVG Version: 6.00 Build 0)  -->
<svg version="1.1" id="图层_1" xmlns="http://www.w3.org/2000/svg" xmlns:xlink="http://www.w3.org/1999/xlink" x="0px" y="0px"
	 viewBox="0 0 24 24" style="enable-background:new 0 0 24 24;" xml:space="preserve">
<style type="text/css">
	.st0{fill:none;}
	.st1{opacity:0.3;fill:#5D78FF;enable-background:new    ;}
	.st2{fill:#5D78FF;}
</style>
<title>Stockholm-icons / Files / File</title>
<desc>Created with Sketch.</desc>
<g id="Stockholm-icons-_x2F_-Files-_x2F_-File">
	<polygon id="Shape" class="st0" points="0,0 24,0 24,24 0,24 	"/>
	<path id="Combined-Shape" class="st1" d="M6.5,2h7.9c0.4,0,0.7,0.1,1,0.4l4.8,4c0.3,0.3,0.5,0.7,0.5,1.1v12.6c0,1.8,0,1.9-1.9,1.9
		H6.5c-1.8,0-1.9-0.1-1.9-1.9V3.9C4.6,2.1,4.6,2,6.5,2z"/>
	<g>
		<path class="st2" d="M10.2,10.1c0.1-0.4,0.3-0.7,0.5-0.9c0.2-0.3,0.5-0.5,0.9-0.6s0.7-0.2,1.1-0.2c0.4,0,0.7,0.1,1,0.2
			s0.6,0.3,0.8,0.5s0.4,0.5,0.5,0.8c0.1,0.3,0.2,0.6,0.2,1c0,0.2,0,0.5-0.1,0.7c-0.1,0.2-0.1,0.4-0.2,0.5c-0.1,0.2-0.2,0.3-0.3,0.4
			c-0.1,0.1-0.2,0.3-0.4,0.4c-0.1,0.1-0.3,0.2-0.4,0.4s-0.2,0.3-0.3,0.4c-0.1,0.1-0.2,0.3-0.2,0.5c-0.1,0.2-0.1,0.3-0.1,0.6v0.5h-1
			v-0.6c0-0.3,0.1-0.6,0.2-0.9c0.1-0.2,0.2-0.4,0.4-0.6c0.2-0.2,0.3-0.4,0.5-0.5c0.2-0.2,0.3-0.3,0.5-0.5c0.1-0.2,0.3-0.4,0.4-0.6
			c0.1-0.2,0.1-0.5,0.1-0.8c0-0.4-0.2-0.8-0.4-1s-0.6-0.4-1-0.4c-0.3,0-0.5,0.1-0.7,0.2s-0.4,0.2-0.5,0.4s-0.2,0.4-0.3,0.6
			C11,10.7,11,11,11,11.2h-1C10,10.8,10,10.5,10.2,10.1z M13.3,15.8v1.3h-1.3v-1.3H13.3z"/>
	</g>
</g>
</svg>
