<?xml version="1.0" encoding="utf-8"?>
<!-- Generator: Adobe Illustrator 22.1.0, SVG Export Plug-In . SVG Version: 6.00 Build 0)  -->
<svg version="1.1" id="Layer_1" xmlns="http://www.w3.org/2000/svg" xmlns:xlink="http://www.w3.org/1999/xlink" x="0px" y="0px"
	 viewBox="0 0 24 24" style="enable-background:new 0 0 24 24;" xml:space="preserve">
<style type="text/css">
	.st0{fill:none;}
	.st1{opacity:0.3;enable-background:new    ;}
</style>
<title>Stockholm-icons / Design / Stamp</title>
<desc>Created with Sketch.</desc>
<g id="Stockholm-icons-_x2F_-Design-_x2F_-Stamp">
	<rect id="bound" class="st0" width="24" height="24"/>
	<g>
		<path class="st1" d="M14.1,18.8v0.3c0,0.5-0.4,0.9-0.9,0.9H2.6c-0.5,0-0.9-0.4-0.9-0.9v-0.3c0-0.5,0.4-0.9,0.9-0.9h0.5v-0.1
			C3.1,17.4,3.5,17,4,17h7.9c0.5,0,0.9,0.4,0.9,0.9v0.1h0.5C13.7,17.9,14.1,18.3,14.1,18.8z"/>
		<g>
			<path d="M16.8,7.9c-0.2,0.2-0.4,0.3-0.6,0.3c-0.2,0-0.4-0.1-0.5-0.2l-4.3-3.6c-0.3-0.3-0.4-0.8-0.1-1.1C11.4,3.1,11.6,3,11.8,3
				c0.2,0,0.4,0.1,0.5,0.2l4.3,3.6C17,7.1,17.1,7.6,16.8,7.9z"/>
			<path d="M11,14.8c-0.2,0.2-0.4,0.3-0.6,0.3c-0.2,0-0.4-0.1-0.5-0.2l-4.3-3.6c-0.3-0.3-0.4-0.8-0.1-1.1C5.6,10,5.9,9.9,6.1,9.9
				c0.2,0,0.4,0.1,0.5,0.2l4.3,3.6C11.3,14,11.3,14.5,11,14.8z"/>
			<path d="M22,18.1c-0.2,0.2-0.4,0.3-0.7,0.3c-0.2,0-0.5,0-0.7-0.2l-7.6-6.8l0.7-0.9l8.1,6.2C22.3,17.1,22.4,17.7,22,18.1z"/>
			<rect x="7.8" y="6.4" transform="matrix(0.6393 -0.7689 0.7689 0.6393 -2.9541 11.8237)" width="6.7" height="5.4"/>
		</g>
	</g>
</g>
</svg>
